<svg version="1.1" id="svg2" xml:space="preserve" viewBox="26.474667120000003 49.44038929440389 54.11733426000001 55.27980535279806" xmlns="http://www.w3.org/2000/svg" style="max-height: 500px" width="54.11733426000001" height="55.27980535279806">
  <metadata id="metadata8"/>
  <defs id="defs6">
    <clipPath id="clipPath22">
      <path d="m 200,414.613 h 2232 v 384 H 200 Z" id="path20"/>
    </clipPath>
  </defs>
  <g id="g10" transform="matrix(1.3333333,0,0,-1.3333333,0,160)">
    <g id="g12" transform="scale(0.1)">
      <path d="M 40,1200 C 17.9102,1200 0,1182.09 0,1160 V 40 C 0,17.9102 17.9102,0 40,0 h 2840 c 22.09,0 40,17.9102 40,40 v 1120 c 0,22.09 -17.91,40 -40,40 H 40" style="fill:#006378;fill-opacity:1;fill-rule:nonzero;stroke:none" id="path14"/>
      <g id="g16">
        <g id="g18" clip-path="url(#clipPath22)">
          <path d="m 671.34,451.457 c 0,-5.812 1.39,-10.523 4.168,-14.133 2.777,-3.609 6.367,-5.414 10.773,-5.414 4.641,0 8.262,1.594 10.864,4.781 l 0.316,-4.078 h 5.977 v 54 h -6.504 v -19.828 c -2.602,3.047 -6.129,4.57 -10.582,4.57 -4.477,0 -8.098,-1.777 -10.864,-5.328 -2.765,-3.55 -4.148,-8.242 -4.148,-14.078 z m 9.176,10.688 c 1.781,2.46 4.265,3.691 7.453,3.691 4.031,0 7.019,-1.793 8.965,-5.379 v -17.473 c -1.899,-3.703 -4.911,-5.554 -9.036,-5.554 -3.14,0 -5.601,1.218 -7.382,3.656 -1.782,2.437 -2.672,5.812 -2.672,10.125 0,4.828 0.89,8.473 2.672,10.934 z m 63.082,-22.887 -3.973,3.094 c -1.195,-1.547 -2.59,-2.789 -4.184,-3.727 -1.593,-0.937 -3.539,-1.406 -5.836,-1.406 -3.234,0 -5.898,1.152 -7.996,3.461 -2.097,2.308 -3.195,5.34 -3.289,9.09 h 25.77 v 2.707 c 0,6.07 -1.371,10.734 -4.113,13.992 -2.743,3.258 -6.586,4.886 -11.532,4.886 -3.023,0 -5.828,-0.839 -8.418,-2.515 -2.589,-1.676 -4.605,-3.996 -6.047,-6.961 -1.441,-2.965 -2.164,-6.332 -2.164,-10.106 v -1.195 c 0,-5.672 1.618,-10.203 4.852,-13.59 3.234,-3.386 7.43,-5.078 12.586,-5.078 6.375,0 11.156,2.449 14.344,7.348 z m -8.684,24.027 c 1.594,-1.816 2.484,-4.375 2.672,-7.68 v -0.492 h -19.055 c 0.422,3.446 1.524,6.121 3.305,8.032 1.781,1.91 3.984,2.867 6.609,2.867 2.719,0 4.875,-0.91 6.469,-2.727 z m 35.469,7.578 c -0.656,0.328 -1.617,0.492 -2.883,0.492 -3.914,0 -6.937,-1.699 -9.07,-5.097 l -0.106,4.394 h -6.328 v -38.039 h 6.504 v 27 c 1.523,3.633 4.418,5.45 8.684,5.45 1.148,0 2.214,-0.083 3.199,-0.247 z m 46.265,-23.414 c -0.023,-3.164 -0.898,-5.625 -2.621,-7.383 -1.722,-1.757 -3.976,-2.636 -6.765,-2.636 -3.051,0 -5.371,0.82 -6.981,2.461 -1.605,1.64 -2.406,3.925 -2.406,6.855 h -6.75 c 0,-4.687 1.418,-8.332 4.254,-10.933 2.836,-2.602 6.801,-3.903 11.883,-3.903 4.898,0 8.816,1.383 11.758,4.149 2.941,2.765 4.418,6.597 4.418,11.496 v 36.246 h -6.79 z m 41.055,-14.836 h 6.184 v 38.039 h -6.504 v -27.668 c -1.637,-3.703 -4.942,-5.554 -9.91,-5.554 -4.692,0 -7.032,2.883 -7.032,8.648 v 24.574 h -6.503 v -24.75 c 0.023,-4.617 1.089,-8.101 3.214,-10.461 2.118,-2.355 5.207,-3.531 9.266,-3.531 4.895,0 8.609,1.488 11.141,4.465 z m 35.621,6.098 c -1.488,-0.996 -3.461,-1.492 -5.922,-1.492 -2.675,0 -4.824,0.636 -6.457,1.914 -1.625,1.277 -2.5,3.008 -2.617,5.187 h -6.504 c 0,-2.25 0.66,-4.343 1.989,-6.277 1.324,-1.934 3.156,-3.438 5.5,-4.516 2.339,-1.078 5.042,-1.617 8.089,-1.617 4.332,0 7.86,1.024 10.578,3.074 2.719,2.051 4.079,4.778 4.079,8.176 0,2.039 -0.485,3.766 -1.457,5.184 -0.973,1.418 -2.465,2.633 -4.481,3.64 -2.016,1.008 -4.652,1.875 -7.898,2.602 -3.246,0.727 -5.489,1.488 -6.731,2.285 -1.242,0.797 -1.859,1.981 -1.859,3.551 0,1.664 0.664,3.012 2.004,4.043 1.332,1.031 3.183,1.547 5.551,1.547 2.296,0 4.203,-0.645 5.714,-1.934 1.508,-1.289 2.266,-2.824 2.266,-4.605 h 6.539 c 0,3.468 -1.34,6.316 -4.027,8.543 -2.684,2.226 -6.18,3.339 -10.492,3.339 -4.098,0 -7.473,-1.078 -10.106,-3.234 -2.641,-2.156 -3.953,-4.793 -3.953,-7.91 0,-1.875 0.461,-3.492 1.387,-4.852 0.922,-1.359 2.355,-2.531 4.289,-3.515 1.929,-0.985 4.547,-1.828 7.84,-2.531 3.289,-0.704 5.597,-1.543 6.925,-2.512 1.321,-0.977 1.985,-2.34 1.985,-4.098 0,-1.664 -0.742,-2.996 -2.231,-3.992 z m 20.086,41.152 v -9.211 h -6.922 v -5.027 h 6.922 v -23.59 c 0,-3.234 0.738,-5.73 2.215,-7.488 1.484,-1.758 3.672,-2.637 6.578,-2.637 1.617,0 3.281,0.235 4.992,0.699 v 5.243 c -1.316,-0.282 -2.34,-0.422 -3.09,-0.422 -1.527,0 -2.605,0.383 -3.242,1.144 -0.629,0.762 -0.945,1.906 -0.945,3.43 v 23.621 h 7.102 v 5.027 h -7.102 v 9.211 z m 27.465,-9.211 h -6.504 v -38.039 h 6.504 z m -6.066,7.453 c 0.64,-0.703 1.601,-1.054 2.867,-1.054 1.265,0 2.226,0.351 2.879,1.054 0.656,0.704 0.984,1.583 0.984,2.637 0,1.055 -0.328,1.946 -0.984,2.672 -0.653,0.727 -1.614,1.09 -2.879,1.09 -1.266,0 -2.227,-0.363 -2.867,-1.09 -0.641,-0.726 -0.965,-1.617 -0.965,-2.672 0,-1.054 0.324,-1.933 0.965,-2.637 z m 42.73,-12.058 v 4.605 h -28.828 v -5.379 h 20.668 l -20.988,-27.878 v -4.782 h 30.199 v 5.309 h -22.254 z m 49.811,-33.434 h 6.19 v 38.039 h -6.5 v -27.668 c -1.65,-3.703 -4.95,-5.554 -9.92,-5.554 -4.68,0 -7.03,2.883 -7.03,8.648 v 24.574 h -6.5 v -24.75 c 0.02,-4.617 1.09,-8.101 3.21,-10.461 2.13,-2.355 5.22,-3.531 9.27,-3.531 4.9,0 8.61,1.488 11.14,4.465 z m 16.08,38.039 v -38.039 h 6.51 v 27.106 c 0.89,1.828 2.13,3.304 3.72,4.429 1.6,1.125 3.45,1.688 5.56,1.688 2.6,0 4.51,-0.656 5.74,-1.969 1.24,-1.312 1.86,-3.34 1.89,-6.082 v -25.172 h 6.51 v 25.137 c -0.08,9.07 -4.13,13.605 -12.17,13.605 -4.69,0 -8.49,-1.828 -11.39,-5.484 l -0.21,4.781 z m 38.05,-19.195 c 0,-5.812 1.4,-10.523 4.17,-14.133 2.78,-3.609 6.37,-5.414 10.78,-5.414 4.64,0 8.26,1.594 10.86,4.781 l 0.32,-4.078 h 5.98 v 54 h -6.51 v -19.828 c -2.6,3.047 -6.13,4.57 -10.58,4.57 -4.48,0 -8.1,-1.777 -10.86,-5.328 -2.77,-3.55 -4.16,-8.242 -4.16,-14.078 z m 9.18,10.688 c 1.78,2.46 4.27,3.691 7.46,3.691 4.03,0 7.02,-1.793 8.96,-5.379 v -17.473 c -1.9,-3.703 -4.91,-5.554 -9.04,-5.554 -3.13,0 -5.6,1.218 -7.38,3.656 -1.78,2.437 -2.67,5.812 -2.67,10.125 0,4.828 0.89,8.473 2.67,10.934 z m 60.54,-29.532 v 33.012 h 8.12 v 5.027 h -8.12 v 4.02 c 0,2.305 0.57,4.074 1.72,5.308 1.15,1.235 2.78,1.852 4.89,1.852 1.24,0 2.41,-0.105 3.51,-0.316 l 0.36,5.242 c -1.48,0.394 -2.97,0.594 -4.47,0.594 -3.98,0 -7.06,-1.114 -9.25,-3.34 -2.17,-2.227 -3.26,-5.379 -3.26,-9.457 v -3.903 h -6.02 v -5.027 h 6.02 v -33.012 z m 38.6,0 h 6.19 v 38.039 h -6.51 v -27.668 c -1.63,-3.703 -4.94,-5.554 -9.91,-5.554 -4.68,0 -7.03,2.883 -7.03,8.648 v 24.574 h -6.5 v -24.75 c 0.02,-4.617 1.09,-8.101 3.21,-10.461 2.13,-2.355 5.21,-3.531 9.27,-3.531 4.89,0 8.61,1.488 11.14,4.465 z m -18.96,45.567 c 0.64,-0.707 1.59,-1.059 2.86,-1.059 1.26,0 2.23,0.352 2.89,1.059 0.65,0.707 0.98,1.59 0.98,2.648 0,1.059 -0.33,1.949 -0.98,2.668 -0.66,0.719 -1.63,1.078 -2.89,1.078 -1.27,0 -2.22,-0.359 -2.86,-1.078 -0.65,-0.719 -0.97,-1.609 -0.97,-2.668 0,-1.058 0.32,-1.941 0.97,-2.648 z m 15.11,-0.071 c 0.65,-0.707 1.6,-1.058 2.87,-1.058 1.27,0 2.22,0.351 2.88,1.058 0.66,0.707 0.98,1.59 0.98,2.649 0,1.062 -0.32,1.957 -0.98,2.683 -0.66,0.731 -1.61,1.098 -2.88,1.098 -1.27,0 -2.22,-0.367 -2.87,-1.098 -0.64,-0.726 -0.97,-1.621 -0.97,-2.683 0,-1.059 0.33,-1.942 0.97,-2.649 z m 38.32,-7.246 c -0.66,0.328 -1.62,0.492 -2.88,0.492 -3.92,0 -6.94,-1.699 -9.08,-5.097 l -0.1,4.394 h -6.33 v -38.039 h 6.51 v 27 c 1.52,3.633 4.41,5.45 8.68,5.45 1.15,0 2.21,-0.083 3.2,-0.247 z m 27.21,12.938 h -7.35 l 18.95,-51.188 h 5.97 l 18.99,51.188 h -7.38 l -14.63,-42.223 z m 69.3,-44.543 -3.98,3.094 c -1.19,-1.547 -2.59,-2.789 -4.18,-3.727 -1.59,-0.937 -3.55,-1.406 -5.83,-1.406 -3.24,0 -5.91,1.152 -8,3.461 -2.1,2.308 -3.2,5.34 -3.29,9.09 h 25.77 v 2.707 c 0,6.07 -1.38,10.734 -4.12,13.992 -2.74,3.258 -6.58,4.886 -11.53,4.886 -3.02,0 -5.83,-0.839 -8.42,-2.515 -2.59,-1.676 -4.61,-3.996 -6.05,-6.961 -1.44,-2.965 -2.16,-6.332 -2.16,-10.106 v -1.195 c 0,-5.672 1.62,-10.203 4.85,-13.59 3.24,-3.386 7.44,-5.078 12.59,-5.078 6.38,0 11.16,2.449 14.35,7.348 z m -8.69,24.027 c 1.59,-1.816 2.48,-4.375 2.68,-7.68 v -0.492 h -19.06 c 0.42,3.446 1.52,6.121 3.31,8.032 1.78,1.91 3.98,2.867 6.6,2.867 2.72,0 4.88,-0.91 6.47,-2.727 z m 35.47,7.578 c -0.66,0.328 -1.62,0.492 -2.88,0.492 -3.92,0 -6.94,-1.699 -9.07,-5.097 l -0.11,4.394 h -6.33 v -38.039 h 6.51 v 27 c 1.52,3.633 4.42,5.45 8.68,5.45 1.15,0 2.21,-0.083 3.2,-0.247 z m 38.39,-19.09 c 0,6.071 -1.32,10.852 -3.95,14.344 -2.64,3.492 -6.27,5.238 -10.88,5.238 -4.62,0 -8.24,-1.628 -10.86,-4.886 v 20.144 h -6.51 v -54 h 5.98 l 0.32,4.395 c 2.62,-3.399 6.33,-5.098 11.14,-5.098 4.5,0 8.09,1.762 10.76,5.289 2.67,3.528 4,8.199 4,14.012 z m -9.1,-10.722 c -1.74,-2.414 -4.16,-3.621 -7.28,-3.621 -4.22,0 -7.32,1.992 -9.31,5.976 v 16.453 c 1.87,3.985 4.95,5.977 9.24,5.977 3.21,0 5.67,-1.207 7.38,-3.621 1.71,-2.414 2.57,-5.836 2.57,-10.266 0,-4.851 -0.87,-8.484 -2.6,-10.898 z m 35.83,29.812 c -0.66,0.328 -1.62,0.492 -2.89,0.492 -3.91,0 -6.93,-1.699 -9.06,-5.097 l -0.11,4.394 h -6.33 v -38.039 h 6.5 v 27 c 1.53,3.633 4.42,5.45 8.68,5.45 1.16,0 2.23,-0.083 3.21,-0.247 z m 36.28,-38.25 v 0.563 c -0.89,2.062 -1.34,4.84 -1.34,8.332 v 17.508 c -0.09,3.843 -1.39,6.859 -3.87,9.05 -2.48,2.192 -5.91,3.289 -10.29,3.289 -2.77,0 -5.31,-0.515 -7.62,-1.546 -2.31,-1.032 -4.13,-2.434 -5.48,-4.204 -1.35,-1.769 -2.02,-3.601 -2.02,-5.5 h 6.54 c 0,1.665 0.78,3.083 2.35,4.254 1.57,1.172 3.51,1.758 5.84,1.758 2.65,0 4.64,-0.676 6.01,-2.023 1.36,-1.348 2.04,-3.156 2.04,-5.43 v -2.988 h -6.33 c -5.46,0 -9.7,-1.098 -12.71,-3.289 -3.01,-2.192 -4.52,-5.266 -4.52,-9.227 0,-3.258 1.2,-5.949 3.61,-8.07 2.4,-2.121 5.47,-3.18 9.22,-3.18 4.2,0 7.81,1.57 10.84,4.711 0.23,-1.922 0.53,-3.258 0.91,-4.008 z m -22.85,6.68 c -1.37,1.148 -2.04,2.742 -2.04,4.781 0,4.664 3.98,6.996 11.95,6.996 h 5.1 v -7.804 c -0.82,-1.688 -2.14,-3.059 -3.98,-4.114 -1.82,-1.054 -3.76,-1.582 -5.8,-1.582 -2.13,0 -3.88,0.575 -5.23,1.723 z m 54.9,-6.68 h 6.19 v 38.039 h -6.5 v -27.668 c -1.65,-3.703 -4.95,-5.554 -9.92,-5.554 -4.69,0 -7.03,2.883 -7.03,8.648 v 24.574 h -6.5 v -24.75 c 0.02,-4.617 1.09,-8.101 3.21,-10.461 2.12,-2.355 5.21,-3.531 9.27,-3.531 4.89,0 8.61,1.488 11.14,4.465 z m 23.66,8.157 c -1.81,2.367 -2.71,5.742 -2.71,10.125 v 1.23 c 0,4.5 0.91,7.938 2.73,10.316 1.82,2.379 4.38,3.571 7.68,3.571 2.47,0 4.53,-0.793 6.21,-2.375 1.67,-1.582 2.6,-3.602 2.79,-6.063 h 6.15 c -0.18,4.078 -1.69,7.395 -4.51,9.949 -2.83,2.555 -6.38,3.832 -10.64,3.832 -3.47,0 -6.48,-0.796 -9.01,-2.39 -2.55,-1.594 -4.5,-3.832 -5.86,-6.715 -1.36,-2.883 -2.04,-6.176 -2.04,-9.879 v -1.09 c 0,-6 1.53,-10.73 4.59,-14.187 3.06,-3.457 7.18,-5.184 12.35,-5.184 2.58,0 5.03,0.586 7.33,1.758 2.32,1.172 4.16,2.742 5.54,4.711 1.38,1.969 2.13,4.043 2.25,6.223 h -6.15 c -0.19,-2.11 -1.15,-3.868 -2.88,-5.274 -1.74,-1.406 -3.76,-2.109 -6.09,-2.109 -3.35,0 -5.92,1.183 -7.73,3.551 z m 36.94,45.843 h -6.51 v -54 h 6.51 v 27.106 c 0.88,1.828 2.12,3.304 3.72,4.429 1.6,1.125 3.45,1.688 5.56,1.688 2.59,0 4.52,-0.656 5.75,-1.969 1.23,-1.312 1.85,-3.34 1.88,-6.082 v -25.172 h 6.5 v 25.137 c -0.07,9.07 -4.13,13.605 -12.16,13.605 -4.63,0 -8.38,-1.769 -11.25,-5.308 z m 63.25,-47.355 -3.97,3.094 c -1.19,-1.547 -2.59,-2.789 -4.18,-3.727 -1.6,-0.937 -3.54,-1.406 -5.84,-1.406 -3.23,0 -5.9,1.152 -7.99,3.461 -2.1,2.308 -3.2,5.34 -3.29,9.09 h 25.77 v 2.707 c 0,6.07 -1.37,10.734 -4.11,13.992 -2.75,3.258 -6.59,4.886 -11.54,4.886 -3.02,0 -5.83,-0.839 -8.41,-2.515 -2.6,-1.676 -4.61,-3.996 -6.05,-6.961 -1.44,-2.965 -2.17,-6.332 -2.17,-10.106 v -1.195 c 0,-5.672 1.62,-10.203 4.86,-13.59 3.23,-3.386 7.42,-5.078 12.58,-5.078 6.37,0 11.16,2.449 14.34,7.348 z m -8.68,24.027 c 1.6,-1.816 2.49,-4.375 2.67,-7.68 v -0.492 h -19.05 c 0.42,3.446 1.52,6.121 3.3,8.032 1.78,1.91 3.99,2.867 6.61,2.867 2.72,0 4.88,-0.91 6.47,-2.727 z m 35.47,7.578 c -0.66,0.328 -1.61,0.492 -2.88,0.492 -3.92,0 -6.95,-1.699 -9.07,-5.097 l -0.11,4.394 h -6.32 v -38.039 h 6.5 v 27 c 1.52,3.633 4.41,5.45 8.68,5.45 1.15,0 2.21,-0.083 3.2,-0.247 z m 25.97,-32.152 c -1.49,-0.996 -3.47,-1.492 -5.93,-1.492 -2.67,0 -4.82,0.636 -6.45,1.914 -1.63,1.277 -2.51,3.008 -2.62,5.187 h -6.5 c 0,-2.25 0.66,-4.343 1.99,-6.277 1.32,-1.934 3.15,-3.438 5.5,-4.516 2.34,-1.078 5.03,-1.617 8.08,-1.617 4.34,0 7.86,1.024 10.58,3.074 2.72,2.051 4.08,4.778 4.08,8.176 0,2.039 -0.48,3.766 -1.46,5.184 -0.97,1.418 -2.47,2.633 -4.48,3.64 -2.02,1.008 -4.65,1.875 -7.89,2.602 -3.25,0.727 -5.49,1.488 -6.73,2.285 -1.25,0.797 -1.87,1.981 -1.87,3.551 0,1.664 0.67,3.012 2,4.043 1.34,1.031 3.19,1.547 5.56,1.547 2.3,0 4.2,-0.645 5.71,-1.934 1.51,-1.289 2.27,-2.824 2.27,-4.605 h 6.54 c 0,3.468 -1.34,6.316 -4.03,8.543 -2.68,2.226 -6.18,3.339 -10.49,3.339 -4.1,0 -7.47,-1.078 -10.1,-3.234 -2.65,-2.156 -3.96,-4.793 -3.96,-7.91 0,-1.875 0.46,-3.492 1.38,-4.852 0.93,-1.359 2.36,-2.531 4.3,-3.515 1.93,-0.985 4.54,-1.828 7.83,-2.531 3.3,-0.704 5.61,-1.543 6.93,-2.512 1.32,-0.977 1.99,-2.34 1.99,-4.098 0,-1.664 -0.74,-2.996 -2.23,-3.992 z m 24.4,2.059 c -1.8,2.367 -2.7,5.742 -2.7,10.125 v 1.23 c 0,4.5 0.9,7.938 2.72,10.316 1.82,2.379 4.38,3.571 7.68,3.571 2.46,0 4.53,-0.793 6.21,-2.375 1.67,-1.582 2.61,-3.602 2.79,-6.063 h 6.15 c -0.18,4.078 -1.69,7.395 -4.51,9.949 -2.82,2.555 -6.37,3.832 -10.64,3.832 -3.47,0 -6.47,-0.796 -9.02,-2.39 -2.54,-1.594 -4.49,-3.832 -5.85,-6.715 -1.36,-2.883 -2.04,-6.176 -2.04,-9.879 v -1.09 c 0,-6 1.53,-10.73 4.59,-14.187 3.06,-3.457 7.18,-5.184 12.36,-5.184 2.58,0 5.02,0.586 7.33,1.758 2.3,1.172 4.15,2.742 5.53,4.711 1.39,1.969 2.14,4.043 2.25,6.223 h -6.15 c -0.18,-2.11 -1.15,-3.868 -2.88,-5.274 -1.74,-1.406 -3.76,-2.109 -6.08,-2.109 -3.36,0 -5.93,1.183 -7.74,3.551 z m 36.94,45.843 h -6.5 v -54 h 6.5 v 27.106 c 0.89,1.828 2.13,3.304 3.73,4.429 1.59,1.125 3.44,1.688 5.54,1.688 2.61,0 4.52,-0.656 5.75,-1.969 1.23,-1.312 1.86,-3.34 1.89,-6.082 v -25.172 h 6.5 v 25.137 c -0.07,9.07 -4.13,13.605 -12.16,13.605 -4.62,0 -8.37,-1.769 -11.25,-5.308 z m 56.69,-54 h 6.19 v 38.039 h -6.51 v -27.668 c -1.64,-3.703 -4.94,-5.554 -9.91,-5.554 -4.69,0 -7.03,2.883 -7.03,8.648 v 24.574 h -6.51 v -24.75 c 0.03,-4.617 1.1,-8.101 3.22,-10.461 2.12,-2.355 5.2,-3.531 9.26,-3.531 4.91,0 8.62,1.488 11.15,4.465 z m 18.96,47.25 v -9.211 h -6.93 v -5.027 h 6.93 v -23.59 c 0,-3.234 0.74,-5.73 2.22,-7.488 1.47,-1.758 3.66,-2.637 6.57,-2.637 1.62,0 3.28,0.235 4.99,0.699 v 5.243 c -1.32,-0.282 -2.34,-0.422 -3.09,-0.422 -1.52,0 -2.6,0.383 -3.23,1.144 -0.64,0.762 -0.96,1.906 -0.96,3.43 v 23.621 h 7.1 v 5.027 h -7.1 v 9.211 z m 48.93,-13.816 v 4.605 h -28.83 v -5.379 h 20.68 l -20.99,-27.878 v -4.782 h 30.2 v 5.309 h -22.25 l 21.19,28.125" style="fill:#cce0e4;fill-opacity:1;fill-rule:nonzero;stroke:none" id="path24"/>
          <path d="m 713.281,567.801 h -6.785 v -22.008 h -25.805 v 22.008 h -6.75 v -51.188 h 6.75 v 23.66 h 25.805 v -23.66 h 6.785 z m 41.125,-44.543 -3.972,3.094 c -1.196,-1.547 -2.59,-2.789 -4.184,-3.727 -1.594,-0.937 -3.539,-1.406 -5.836,-1.406 -3.234,0 -5.898,1.152 -7.996,3.461 -2.098,2.308 -3.195,5.34 -3.289,9.09 h 25.769 v 2.707 c 0,6.07 -1.371,10.734 -4.113,13.992 -2.742,3.258 -6.586,4.886 -11.531,4.886 -3.024,0 -5.828,-0.839 -8.418,-2.515 -2.59,-1.676 -4.606,-3.996 -6.047,-6.961 -1.441,-2.965 -2.164,-6.332 -2.164,-10.106 v -1.195 c 0,-5.672 1.617,-10.203 4.852,-13.59 3.234,-3.386 7.429,-5.078 12.586,-5.078 6.375,0 11.156,2.449 14.343,7.348 z m -8.683,24.027 c 1.593,-1.816 2.484,-4.375 2.672,-7.68 v -0.492 H 729.34 c 0.422,3.446 1.523,6.121 3.305,8.035 1.781,1.907 3.984,2.864 6.609,2.864 2.719,0 4.875,-0.91 6.469,-2.727 z m 35.468,7.578 c -0.656,0.328 -1.617,0.492 -2.882,0.492 -3.914,0 -6.938,-1.699 -9.071,-5.097 l -0.105,4.394 h -6.328 v -38.039 h 6.504 v 27 c 1.523,3.633 4.418,5.45 8.683,5.45 1.149,0 2.215,-0.083 3.199,-0.247 z m 36.282,-38.25 v 0.563 c -0.887,2.062 -1.34,4.84 -1.34,8.332 v 17.508 c -0.09,3.843 -1.379,6.859 -3.863,9.05 -2.485,2.192 -5.915,3.289 -10.301,3.289 -2.766,0 -5.305,-0.515 -7.61,-1.546 -2.312,-1.032 -4.14,-2.434 -5.488,-4.204 -1.344,-1.769 -2.019,-3.601 -2.019,-5.5 h 6.539 c 0,1.665 0.785,3.083 2.355,4.254 1.57,1.172 3.516,1.758 5.84,1.758 2.644,0 4.648,-0.676 6.012,-2.023 1.355,-1.348 2.039,-3.156 2.039,-5.43 v -2.988 h -6.332 c -5.461,0 -9.7,-1.098 -12.707,-3.289 -3.012,-2.192 -4.52,-5.266 -4.52,-9.227 0,-3.258 1.203,-5.949 3.606,-8.07 2.402,-2.121 5.476,-3.18 9.226,-3.18 4.199,0 7.805,1.57 10.828,4.711 0.235,-1.922 0.539,-3.258 0.91,-4.008 z m -22.852,6.68 c -1.359,1.148 -2.039,2.742 -2.039,4.781 0,4.664 3.984,6.996 11.953,6.996 h 5.102 v -7.804 c -0.824,-1.688 -2.149,-3.059 -3.981,-4.114 -1.82,-1.054 -3.761,-1.582 -5.797,-1.582 -2.132,0 -3.879,0.575 -5.238,1.723 z m 54.902,-6.68 h 6.188 v 38.039 h -6.504 v -27.668 c -1.641,-3.703 -4.945,-5.554 -9.914,-5.554 -4.684,0 -7.031,2.883 -7.031,8.648 v 24.574 h -6.504 v -24.75 c 0.023,-4.617 1.097,-8.101 3.215,-10.461 2.125,-2.355 5.215,-3.531 9.265,-3.531 4.903,0 8.617,1.488 11.149,4.465 z m 35.622,6.098 c -1.489,-0.996 -3.461,-1.492 -5.922,-1.492 -2.668,0 -4.825,0.636 -6.45,1.914 -1.632,1.277 -2.5,3.008 -2.621,5.187 h -6.504 c 0,-2.25 0.665,-4.343 1.985,-6.277 1.328,-1.934 3.164,-3.438 5.504,-4.516 2.343,-1.078 5.039,-1.617 8.086,-1.617 4.34,0 7.863,1.024 10.586,3.074 2.718,2.051 4.074,4.778 4.074,8.176 0,2.039 -0.488,3.766 -1.457,5.184 -0.973,1.418 -2.469,2.633 -4.485,3.64 -2.015,1.008 -4.644,1.875 -7.89,2.602 -3.246,0.727 -5.488,1.488 -6.731,2.285 -1.242,0.797 -1.867,1.981 -1.867,3.551 0,1.664 0.668,3.012 2.004,4.043 1.34,1.031 3.188,1.547 5.559,1.547 2.297,0 4.199,-0.645 5.711,-1.934 1.511,-1.289 2.265,-2.824 2.265,-4.605 h 6.543 c 0,3.468 -1.344,6.316 -4.027,8.543 -2.684,2.226 -6.18,3.339 -10.492,3.339 -4.106,0 -7.473,-1.078 -10.114,-3.234 -2.632,-2.156 -3.953,-4.793 -3.953,-7.91 0,-1.875 0.461,-3.492 1.395,-4.852 0.922,-1.359 2.351,-2.531 4.281,-3.515 1.938,-0.985 4.551,-1.828 7.844,-2.531 3.293,-0.704 5.601,-1.543 6.922,-2.512 1.328,-0.977 1.988,-2.34 1.988,-4.098 0,-1.664 -0.746,-2.996 -2.234,-3.992 z m 19.398,-1.422 c 2.754,-3.586 6.359,-5.379 10.812,-5.379 4.5,0 8.051,1.5 10.653,4.5 v -3.269 c 0,-3.235 -0.883,-5.743 -2.653,-7.524 -1.769,-1.781 -4.238,-2.672 -7.406,-2.672 -4.023,0 -7.437,1.723 -10.23,5.168 l -3.371,-3.902 c 1.379,-2.039 3.382,-3.645 6.011,-4.816 2.621,-1.172 5.313,-1.758 8.051,-1.758 4.922,0 8.84,1.418 11.762,4.254 2.918,2.836 4.375,6.714 4.375,11.636 v 37.125 h -5.942 l -0.316,-4.218 c -2.598,3.281 -6.223,4.921 -10.859,4.921 -4.528,0 -8.16,-1.753 -10.903,-5.253 -2.742,-3.508 -4.109,-8.223 -4.109,-14.153 0,-6.187 1.371,-11.074 4.125,-14.66 z m 5.082,24.856 c 1.781,2.46 4.254,3.691 7.418,3.691 3.984,0 6.973,-1.816 8.965,-5.449 V 527.02 c -1.922,-3.727 -4.934,-5.59 -9.039,-5.59 -3.16,0 -5.621,1.222 -7.379,3.672 -1.758,2.449 -2.641,5.82 -2.641,10.109 0,4.828 0.895,8.473 2.676,10.934 z m 62.941,-22.887 -3.976,3.094 c -1.195,-1.547 -2.586,-2.789 -4.184,-3.727 -1.597,-0.937 -3.539,-1.406 -5.832,-1.406 -3.238,0 -5.902,1.152 -8,3.461 -2.097,2.308 -3.195,5.34 -3.285,9.09 h 25.77 v 2.707 c 0,6.07 -1.375,10.734 -4.118,13.992 -2.742,3.258 -6.586,4.886 -11.531,4.886 -3.023,0 -5.832,-0.839 -8.418,-2.515 -2.594,-1.676 -4.609,-3.996 -6.047,-6.961 -1.441,-2.965 -2.16,-6.332 -2.16,-10.106 v -1.195 c 0,-5.672 1.613,-10.203 4.848,-13.59 3.234,-3.386 7.433,-5.078 12.586,-5.078 6.375,0 11.156,2.449 14.347,7.348 z m -8.687,24.027 c 1.594,-1.816 2.484,-4.375 2.676,-7.68 v -0.492 h -19.059 c 0.422,3.446 1.527,6.121 3.309,8.035 1.773,1.907 3.984,2.864 6.605,2.864 2.719,0 4.879,-0.91 6.469,-2.727 z m 19.523,-25.996 c 2.754,-3.586 6.356,-5.379 10.805,-5.379 4.5,0 8.053,1.5 10.653,4.5 v -3.269 c 0,-3.235 -0.88,-5.743 -2.65,-7.524 -1.77,-1.781 -4.241,-2.672 -7.401,-2.672 -4.032,0 -7.442,1.723 -10.231,5.168 l -3.371,-3.902 c 1.379,-2.039 3.383,-3.645 6.004,-4.816 2.629,-1.172 5.312,-1.758 8.055,-1.758 4.924,0 8.844,1.418 11.754,4.254 2.93,2.836 4.38,6.714 4.38,11.636 v 37.125 h -5.94 l -0.32,-4.218 c -2.6,3.281 -6.214,4.921 -10.859,4.921 -4.523,0 -8.156,-1.753 -10.898,-5.253 -2.742,-3.508 -4.113,-8.223 -4.113,-14.153 0,-6.187 1.378,-11.074 4.132,-14.66 z m 5.075,24.856 c 1.785,2.46 4.253,3.691 7.421,3.691 3.985,0 6.972,-1.816 8.962,-5.449 V 527.02 c -1.91,-3.727 -4.926,-5.59 -9.032,-5.59 -3.164,0 -5.621,1.222 -7.379,3.672 -1.758,2.449 -2.64,5.82 -2.64,10.109 0,4.828 0.894,8.473 2.668,10.934 z m 62.943,-22.887 -3.97,3.094 c -1.2,-1.547 -2.59,-2.789 -4.18,-3.727 -1.6,-0.937 -3.55,-1.406 -5.84,-1.406 -3.24,0 -5.9,1.152 -8,3.461 -2.09,2.308 -3.2,5.34 -3.29,9.09 h 25.77 v 2.707 c 0,6.07 -1.37,10.734 -4.11,13.992 -2.74,3.258 -6.59,4.886 -11.53,4.886 -3.03,0 -5.83,-0.839 -8.43,-2.515 -2.58,-1.676 -4.6,-3.996 -6.04,-6.961 -1.44,-2.965 -2.16,-6.332 -2.16,-10.106 v -1.195 c 0,-5.672 1.62,-10.203 4.85,-13.59 3.23,-3.386 7.43,-5.078 12.59,-5.078 6.37,0 11.15,2.449 14.34,7.348 z m -8.69,24.027 c 1.6,-1.816 2.49,-4.375 2.68,-7.68 v -0.492 h -19.06 c 0.43,3.446 1.53,6.121 3.31,8.035 1.78,1.907 3.98,2.864 6.61,2.864 2.71,0 4.87,-0.91 6.46,-2.727 z m 49.29,-11.512 c 0,6.071 -1.32,10.852 -3.95,14.344 -2.64,3.492 -6.27,5.238 -10.89,5.238 -4.61,0 -8.23,-1.628 -10.86,-4.886 v 20.144 h -6.5 v -54 h 5.97 l 0.32,4.395 c 2.62,-3.399 6.34,-5.098 11.14,-5.098 4.5,0 8.09,1.762 10.76,5.289 2.67,3.528 4.01,8.199 4.01,14.012 z m -9.11,-10.722 c -1.73,-2.414 -4.16,-3.621 -7.28,-3.621 -4.21,0 -7.32,1.992 -9.31,5.976 v 16.453 c 1.88,3.985 4.96,5.977 9.25,5.977 3.21,0 5.67,-1.207 7.38,-3.621 1.71,-2.414 2.57,-5.836 2.57,-10.266 0,-4.851 -0.88,-8.484 -2.61,-10.898 z m 47.52,-1.793 -3.97,3.094 c -1.19,-1.547 -2.59,-2.789 -4.18,-3.727 -1.6,-0.937 -3.54,-1.406 -5.84,-1.406 -3.23,0 -5.9,1.152 -8,3.461 -2.09,2.308 -3.19,5.34 -3.29,9.09 h 25.78 v 2.707 c 0,6.07 -1.38,10.734 -4.12,13.992 -2.74,3.258 -6.58,4.886 -11.53,4.886 -3.02,0 -5.83,-0.839 -8.42,-2.515 -2.59,-1.676 -4.6,-3.996 -6.04,-6.961 -1.45,-2.965 -2.17,-6.332 -2.17,-10.106 v -1.195 c 0,-5.672 1.62,-10.203 4.85,-13.59 3.24,-3.386 7.43,-5.078 12.59,-5.078 6.37,0 11.16,2.449 14.34,7.348 z m -8.68,24.027 c 1.6,-1.816 2.48,-4.375 2.67,-7.68 v -0.492 h -19.05 c 0.42,3.446 1.52,6.121 3.3,8.035 1.78,1.907 3.98,2.864 6.61,2.864 2.72,0 4.87,-0.91 6.47,-2.727 z m 17.08,7.367 v -38.039 h 6.51 v 27.106 c 0.88,1.828 2.12,3.304 3.72,4.429 1.59,1.125 3.45,1.688 5.56,1.688 2.59,0 4.52,-0.656 5.75,-1.969 1.23,-1.312 1.85,-3.34 1.87,-6.082 v -25.172 h 6.51 v 25.137 c -0.07,9.07 -4.12,13.605 -12.16,13.605 -4.7,0 -8.49,-1.828 -11.4,-5.484 l -0.21,4.781 z m 60.44,0 h -6.65 l 13.78,-38.039 h 4.96 l 13.64,38.039 h -6.64 l -9.43,-29.214 z m 28.9,-19.125 c 0,-5.906 1.6,-10.652 4.79,-14.238 3.2,-3.586 7.38,-5.379 12.54,-5.379 3.42,0 6.45,0.82 9.09,2.461 2.63,1.641 4.66,3.93 6.08,6.871 1.42,2.942 2.12,6.266 2.12,9.969 v 0.457 c 0,5.953 -1.59,10.723 -4.79,14.309 -3.21,3.586 -7.39,5.378 -12.57,5.378 -3.36,0 -6.34,-0.808 -8.95,-2.425 -2.61,-1.617 -4.66,-3.914 -6.12,-6.891 -1.46,-2.976 -2.19,-6.328 -2.19,-10.055 z m 9.49,10.653 c 1.97,2.554 4.56,3.832 7.77,3.832 3.28,0 5.91,-1.297 7.89,-3.887 1.98,-2.59 2.97,-5.969 2.97,-10.141 0,-4.664 -0.97,-8.293 -2.92,-10.882 -1.94,-2.59 -4.57,-3.883 -7.87,-3.883 -3.28,0 -5.9,1.277 -7.86,3.832 -1.96,2.554 -2.93,5.941 -2.93,10.16 0,4.758 0.98,8.414 2.95,10.969 z m 33.25,8.472 v -38.039 h 6.5 v 27.774 c 1.57,3.633 4.49,5.449 8.76,5.449 5.41,0 8.12,-2.766 8.12,-8.297 v -24.926 h 6.53 v 25.242 c 0.27,2.438 1.19,4.375 2.79,5.821 1.59,1.437 3.59,2.16 6.01,2.16 2.92,0 5.01,-0.676 6.26,-2.023 1.24,-1.348 1.85,-3.379 1.85,-6.098 v -25.102 h 6.51 v 25.489 c -0.14,8.836 -4.38,13.253 -12.73,13.253 -2.76,0 -5.16,-0.562 -7.19,-1.687 -2.02,-1.125 -3.67,-2.602 -4.93,-4.43 -1.93,4.078 -5.55,6.117 -10.87,6.117 -4.73,0 -8.5,-1.64 -11.29,-4.921 l -0.17,4.218 z m 99.74,-38.039 c 5.44,0 9.64,1.313 12.62,3.938 2.97,2.625 4.46,6.234 4.46,10.828 0,3 -0.8,5.582 -2.41,7.75 -1.61,2.168 -3.79,3.641 -6.55,4.414 2.34,1.008 4.19,2.43 5.55,4.27 1.36,1.839 2.04,3.957 2.04,6.347 0,4.5 -1.4,7.899 -4.2,10.195 -2.8,2.297 -6.98,3.446 -12.53,3.446 h -16.74 v -51.188 z m 0.24,23.942 c 6.71,0 10.06,-3.082 10.06,-9.246 0,-2.86 -0.91,-5.106 -2.73,-6.735 -1.81,-1.629 -4.29,-2.441 -7.43,-2.441 h -11.15 v 18.422 z m -11.25,21.726 h 9.99 c 3.35,0 5.84,-0.64 7.49,-1.922 1.63,-1.277 2.45,-3.328 2.45,-6.148 0,-2.535 -0.87,-4.543 -2.64,-6.023 -1.78,-1.481 -4.14,-2.219 -7.09,-2.219 h -10.2 z m 60.75,-45.668 h 6.18 v 38.039 h -6.5 v -27.668 c -1.64,-3.703 -4.94,-5.554 -9.91,-5.554 -4.69,0 -7.03,2.883 -7.03,8.648 v 24.574 h -6.51 v -24.75 c 0.02,-4.617 1.1,-8.101 3.22,-10.461 2.12,-2.355 5.21,-3.531 9.26,-3.531 4.9,0 8.62,1.488 11.14,4.465 z m 16.08,38.039 v -38.039 h 6.5 v 27.106 c 0.89,1.828 2.13,3.304 3.73,4.429 1.59,1.125 3.44,1.688 5.55,1.688 2.6,0 4.52,-0.656 5.75,-1.969 1.23,-1.312 1.86,-3.34 1.88,-6.082 v -25.172 h 6.5 v 25.137 c -0.06,9.07 -4.12,13.605 -12.16,13.605 -4.68,0 -8.48,-1.828 -11.38,-5.484 l -0.22,4.781 z m 38.05,-19.195 c 0,-5.812 1.39,-10.523 4.16,-14.133 2.78,-3.609 6.37,-5.414 10.78,-5.414 4.65,0 8.26,1.594 10.86,4.781 l 0.32,-4.078 h 5.97 v 54 h -6.5 v -19.828 c -2.6,3.047 -6.13,4.57 -10.58,4.57 -4.48,0 -8.1,-1.777 -10.86,-5.328 -2.77,-3.55 -4.15,-8.242 -4.15,-14.078 z m 9.18,10.688 c 1.78,2.46 4.26,3.691 7.44,3.691 4.04,0 7.03,-1.793 8.97,-5.379 v -17.473 c -1.9,-3.703 -4.91,-5.554 -9.03,-5.554 -3.14,0 -5.6,1.218 -7.38,3.656 -1.79,2.437 -2.68,5.812 -2.68,10.125 0,4.828 0.89,8.473 2.68,10.934 z m 63.08,-22.887 -3.98,3.094 c -1.19,-1.547 -2.59,-2.789 -4.17,-3.727 -1.6,-0.937 -3.54,-1.406 -5.84,-1.406 -3.24,0 -5.9,1.152 -8,3.461 -2.1,2.308 -3.19,5.34 -3.29,9.09 h 25.77 v 2.707 c 0,6.07 -1.37,10.734 -4.12,13.992 -2.74,3.258 -6.58,4.886 -11.52,4.886 -3.02,0 -5.83,-0.839 -8.43,-2.515 -2.58,-1.676 -4.6,-3.996 -6.04,-6.961 -1.45,-2.965 -2.16,-6.332 -2.16,-10.106 v -1.195 c 0,-5.672 1.62,-10.203 4.85,-13.59 3.24,-3.386 7.43,-5.078 12.58,-5.078 6.38,0 11.16,2.449 14.35,7.348 z m -8.68,24.027 c 1.59,-1.816 2.48,-4.375 2.67,-7.68 v -0.492 h -19.06 c 0.43,3.446 1.52,6.121 3.31,8.035 1.78,1.907 3.98,2.864 6.61,2.864 2.72,0 4.87,-0.91 6.47,-2.727 z m 36.34,-24.574 c -1.49,-0.996 -3.46,-1.492 -5.93,-1.492 -2.67,0 -4.82,0.636 -6.45,1.914 -1.63,1.277 -2.5,3.008 -2.61,5.187 h -6.51 c 0,-2.25 0.66,-4.343 1.99,-6.277 1.32,-1.934 3.15,-3.438 5.5,-4.516 2.34,-1.078 5.04,-1.617 8.08,-1.617 4.34,0 7.87,1.024 10.58,3.074 2.72,2.051 4.09,4.778 4.09,8.176 0,2.039 -0.49,3.766 -1.47,5.184 -0.97,1.418 -2.47,2.633 -4.48,3.64 -2.02,1.008 -4.64,1.875 -7.89,2.602 -3.25,0.727 -5.49,1.488 -6.73,2.285 -1.25,0.797 -1.87,1.981 -1.87,3.551 0,1.664 0.67,3.012 2,4.043 1.34,1.031 3.2,1.547 5.56,1.547 2.3,0 4.2,-0.645 5.71,-1.934 1.51,-1.289 2.27,-2.824 2.27,-4.605 h 6.54 c 0,3.468 -1.34,6.316 -4.03,8.543 -2.68,2.226 -6.18,3.339 -10.49,3.339 -4.1,0 -7.47,-1.078 -10.1,-3.234 -2.65,-2.156 -3.97,-4.793 -3.97,-7.91 0,-1.875 0.47,-3.492 1.4,-4.852 0.92,-1.359 2.35,-2.531 4.29,-3.515 1.93,-0.985 4.54,-1.828 7.83,-2.531 3.3,-0.704 5.61,-1.543 6.93,-2.512 1.32,-0.977 1.99,-2.34 1.99,-4.098 0,-1.664 -0.74,-2.996 -2.23,-3.992 z m 17.12,31.941 v -38.039 h 6.51 v 27.774 c 1.56,3.633 4.48,5.449 8.75,5.449 5.41,0 8.12,-2.766 8.12,-8.297 v -24.926 h 6.54 v 25.242 c 0.25,2.438 1.18,4.375 2.78,5.821 1.59,1.437 3.59,2.16 6.01,2.16 2.93,0 5.02,-0.676 6.26,-2.023 1.24,-1.348 1.86,-3.379 1.86,-6.098 v -25.102 h 6.5 v 25.489 c -0.14,8.836 -4.38,13.253 -12.73,13.253 -2.76,0 -5.16,-0.562 -7.18,-1.687 -2.03,-1.125 -3.68,-2.602 -4.94,-4.43 -1.93,4.078 -5.55,6.117 -10.87,6.117 -4.73,0 -8.49,-1.64 -11.28,-4.921 l -0.18,4.218 z m 69.82,0 h -6.5 v -38.039 h 6.5 z m -6.07,7.453 c 0.65,-0.703 1.6,-1.054 2.87,-1.054 1.27,0 2.23,0.351 2.88,1.054 0.66,0.704 0.98,1.583 0.98,2.637 0,1.055 -0.32,1.946 -0.98,2.672 -0.65,0.727 -1.61,1.09 -2.88,1.09 -1.27,0 -2.22,-0.363 -2.87,-1.09 -0.64,-0.726 -0.96,-1.617 -0.96,-2.672 0,-1.054 0.32,-1.933 0.96,-2.637 z m 16.26,-7.453 v -38.039 h 6.5 v 27.106 c 0.89,1.828 2.14,3.304 3.73,4.429 1.59,1.125 3.45,1.688 5.55,1.688 2.61,0 4.52,-0.656 5.75,-1.969 1.23,-1.312 1.86,-3.34 1.88,-6.082 v -25.172 h 6.51 v 25.137 c -0.07,9.07 -4.13,13.605 -12.17,13.605 -4.69,0 -8.48,-1.828 -11.39,-5.484 l -0.21,4.781 z m 46.39,0 h -6.5 v -38.039 h 6.5 z m -6.06,7.453 c 0.65,-0.703 1.6,-1.054 2.87,-1.054 1.26,0 2.22,0.351 2.87,1.054 0.66,0.704 0.99,1.583 0.99,2.637 0,1.055 -0.33,1.946 -0.99,2.672 -0.65,0.727 -1.61,1.09 -2.87,1.09 -1.27,0 -2.22,-0.363 -2.87,-1.09 -0.64,-0.726 -0.97,-1.617 -0.97,-2.672 0,-1.054 0.33,-1.933 0.97,-2.637 z m 35.81,-39.394 c -1.49,-0.996 -3.46,-1.492 -5.92,-1.492 -2.68,0 -4.83,0.636 -6.45,1.914 -1.63,1.277 -2.51,3.008 -2.62,5.187 h -6.51 c 0,-2.25 0.67,-4.343 1.99,-6.277 1.33,-1.934 3.16,-3.438 5.5,-4.516 2.34,-1.078 5.04,-1.617 8.09,-1.617 4.33,0 7.86,1.024 10.58,3.074 2.72,2.051 4.08,4.778 4.08,8.176 0,2.039 -0.49,3.766 -1.46,5.184 -0.97,1.418 -2.47,2.633 -4.48,3.64 -2.02,1.008 -4.65,1.875 -7.9,2.602 -3.24,0.727 -5.49,1.488 -6.73,2.285 -1.24,0.797 -1.86,1.981 -1.86,3.551 0,1.664 0.67,3.012 2,4.043 1.34,1.031 3.19,1.547 5.55,1.547 2.3,0 4.21,-0.645 5.72,-1.934 1.51,-1.289 2.26,-2.824 2.26,-4.605 h 6.54 c 0,3.468 -1.33,6.316 -4.02,8.543 -2.68,2.226 -6.18,3.339 -10.5,3.339 -4.09,0 -7.46,-1.078 -10.1,-3.234 -2.64,-2.156 -3.95,-4.793 -3.95,-7.91 0,-1.875 0.46,-3.492 1.38,-4.852 0.92,-1.359 2.36,-2.531 4.29,-3.515 1.94,-0.985 4.55,-1.828 7.85,-2.531 3.28,-0.704 5.59,-1.543 6.92,-2.512 1.33,-0.977 1.99,-2.34 1.99,-4.098 0,-1.664 -0.75,-2.996 -2.24,-3.992 z m 20.09,41.152 v -9.211 h -6.92 v -5.027 h 6.92 v -23.59 c 0,-3.234 0.74,-5.73 2.22,-7.488 1.48,-1.758 3.67,-2.637 6.57,-2.637 1.62,0 3.28,0.235 4.99,0.699 v 5.243 c -1.31,-0.282 -2.34,-0.422 -3.09,-0.422 -1.52,0 -2.6,0.383 -3.23,1.144 -0.64,0.762 -0.96,1.906 -0.96,3.43 v 23.621 h 7.11 v 5.027 h -7.11 v 9.211 z m 50.06,-40.605 -3.97,3.094 c -1.2,-1.547 -2.6,-2.789 -4.19,-3.727 -1.59,-0.937 -3.54,-1.406 -5.83,-1.406 -3.24,0 -5.91,1.152 -8,3.461 -2.1,2.308 -3.2,5.34 -3.29,9.09 h 25.77 v 2.707 c 0,6.07 -1.37,10.734 -4.12,13.992 -2.74,3.258 -6.59,4.886 -11.53,4.886 -3.02,0 -5.82,-0.839 -8.41,-2.515 -2.6,-1.676 -4.61,-3.996 -6.06,-6.961 -1.43,-2.965 -2.16,-6.332 -2.16,-10.106 v -1.195 c 0,-5.672 1.62,-10.203 4.86,-13.59 3.23,-3.386 7.43,-5.078 12.58,-5.078 6.37,0 11.16,2.449 14.35,7.348 z m -8.69,24.027 c 1.6,-1.816 2.48,-4.375 2.68,-7.68 v -0.492 h -19.06 c 0.42,3.446 1.52,6.121 3.31,8.035 1.78,1.907 3.98,2.864 6.6,2.864 2.72,0 4.88,-0.91 6.47,-2.727 z m 35.47,7.578 c -0.66,0.328 -1.62,0.492 -2.88,0.492 -3.92,0 -6.94,-1.699 -9.08,-5.097 l -0.1,4.394 h -6.33 v -38.039 h 6.51 v 27 c 1.52,3.633 4.41,5.45 8.68,5.45 1.15,0 2.22,-0.083 3.2,-0.247 z m 12.97,-0.211 h -6.5 v -38.039 h 6.5 z m -6.06,7.453 c 0.64,-0.703 1.59,-1.054 2.86,-1.054 1.27,0 2.23,0.351 2.89,1.054 0.65,0.704 0.98,1.583 0.98,2.637 0,1.055 -0.33,1.946 -0.98,2.672 -0.66,0.727 -1.62,1.09 -2.89,1.09 -1.27,0 -2.22,-0.363 -2.86,-1.09 -0.65,-0.726 -0.97,-1.617 -0.97,-2.672 0,-1.054 0.32,-1.933 0.97,-2.637 z m 39.72,-45.492 h 6.18 v 38.039 h -6.5 v -27.668 c -1.64,-3.703 -4.94,-5.554 -9.91,-5.554 -4.69,0 -7.03,2.883 -7.03,8.648 v 24.574 h -6.51 v -24.75 c 0.03,-4.617 1.1,-8.101 3.22,-10.461 2.12,-2.355 5.21,-3.531 9.26,-3.531 4.9,0 8.62,1.488 11.15,4.465 z m 16.08,38.039 v -38.039 h 6.5 v 27.774 c 1.58,3.633 4.49,5.449 8.76,5.449 5.41,0 8.12,-2.766 8.12,-8.297 v -24.926 h 6.54 v 25.242 c 0.25,2.438 1.18,4.375 2.77,5.821 1.6,1.437 3.6,2.16 6.01,2.16 2.94,0 5.02,-0.676 6.26,-2.023 1.24,-1.348 1.87,-3.379 1.87,-6.098 v -25.102 h 6.5 v 25.489 c -0.14,8.836 -4.38,13.253 -12.72,13.253 -2.77,0 -5.17,-0.562 -7.19,-1.687 -2.03,-1.125 -3.68,-2.602 -4.95,-4.43 -1.92,4.078 -5.54,6.117 -10.86,6.117 -4.73,0 -8.49,-1.64 -11.28,-4.921 l -0.18,4.218 h -6.15" style="fill:#cce0e4;fill-opacity:1;fill-rule:nonzero;stroke:none" id="path26"/>
          <path d="m 733.367,623.113 c 16.953,0.137 30.008,3.895 39.172,11.278 9.156,7.386 13.738,18.254 13.738,32.609 0,8.406 -2.203,15.516 -6.613,21.328 -4.41,5.809 -10.445,9.672 -18.098,11.586 6.7,2.598 11.926,6.684 15.688,12.254 3.758,5.57 5.641,12.012 5.641,19.328 0,13.399 -4.684,23.567 -14.051,30.508 -9.364,6.937 -23.106,10.406 -41.219,10.406 H 675.332 V 623.113 Z m 0.922,65.012 c 14.152,-0.207 21.227,-7.145 21.227,-20.816 0,-6.086 -2.036,-10.856 -6.102,-14.305 -4.066,-3.453 -9.726,-5.18 -16.969,-5.18 H 706.09 v 40.301 z m -28.199,59.367 h 21.535 c 8.477,0 14.68,-1.484 18.609,-4.461 3.93,-2.972 5.899,-7.843 5.899,-14.609 0,-12.102 -7.762,-18.289 -23.278,-18.563 H 706.09 Z M 883.527,623.113 h 27.895 v 110.946 h -29.738 v -78.633 c -3.762,-6.985 -10.668,-10.473 -20.711,-10.473 -10.532,0 -15.793,5.781 -15.793,17.348 v 71.758 h -29.633 v -72.7 c 0.133,-13.191 3.328,-23.207 9.586,-30.043 6.254,-6.836 15.332,-10.253 27.222,-10.253 12.918,0 23.036,4.441 30.356,13.328 z m 59.207,110.946 V 623.113 h 29.633 v 78.239 c 4.172,7.109 10.422,10.664 18.762,10.664 6.359,0 10.901,-1.422 13.641,-4.258 2.73,-2.836 4.1,-7.399 4.1,-13.688 v -70.957 h 29.64 v 71.676 c -0.14,13.738 -3.08,24.059 -8.82,30.965 -5.74,6.906 -14.5,10.355 -26.25,10.355 -13.335,0 -23.963,-4.957 -31.893,-14.867 l -0.926,12.817 z m 134.586,-97.563 c 7.9,-10.289 18.37,-15.433 31.43,-15.433 11.63,0 21.13,4.613 28.51,13.843 l 1.44,-11.793 h 26.75 v 157.5 h -29.73 v -56.601 c -7.04,8.066 -15.96,12.097 -26.76,12.097 -13.47,0 -24.08,-5.125 -31.84,-15.379 -7.76,-10.253 -11.64,-24.031 -11.64,-41.324 0,-18.32 3.95,-32.625 11.84,-42.91 z m 39.23,75.52 c 9.09,0 15.48,-3.871 19.17,-11.606 v -43.851 c -3.76,-7.739 -10.22,-11.606 -19.38,-11.606 -6.9,0 -12.17,2.774 -15.79,8.32 -3.62,5.543 -5.43,13.52 -5.43,23.926 0,23.211 7.14,34.817 21.43,34.817 z m 156.71,-85.672 c 7.59,3.519 13.6,8.422 18.05,14.715 l -14.56,16.3 c -6.43,-8.269 -15.35,-12.406 -26.76,-12.406 -7.39,0 -13.49,2.188 -18.31,6.563 -4.82,4.375 -7.71,10.187 -8.66,17.433 h 70.65 v 12.098 c 0,17.57 -4.37,31.137 -13.08,40.707 -8.71,9.57 -20.66,14.355 -35.83,14.355 -10.12,0 -19.13,-2.375 -27.02,-7.125 -7.9,-4.75 -14,-11.519 -18.31,-20.3 -4.3,-8.786 -6.45,-18.75 -6.45,-29.891 v -2.871 c 0,-16.613 5.1,-29.91 15.32,-39.891 10.22,-9.98 23.47,-14.968 39.74,-14.968 9.23,0 17.63,1.761 25.22,5.281 z m -14.05,80.469 c 3.42,-3.606 5.2,-8.704 5.33,-15.293 v -2.372 h -41.22 c 1.03,7.415 3.37,13.114 7.03,17.098 3.65,3.981 8.42,5.973 14.3,5.973 6.29,0 11.15,-1.801 14.56,-5.406 z m 115.21,-61.5 c -2.9,-2.153 -7.19,-3.231 -12.86,-3.231 -6.09,0 -10.94,1.402 -14.56,4.203 -3.63,2.805 -5.58,6.836 -5.85,12.102 h -28.1 c 0,-6.699 2.06,-12.938 6.15,-18.715 4.11,-5.777 9.76,-10.32 16.98,-13.637 7.21,-3.316 15.46,-4.972 24.76,-4.972 13.74,0 24.95,3.128 33.63,9.382 8.68,6.254 13.03,14.442 13.03,24.559 0,14.148 -7.83,24.098 -23.49,29.836 -5.06,1.848 -11.28,3.504 -18.66,4.976 -7.38,1.469 -12.63,3.211 -15.74,5.227 -3.11,2.016 -4.66,4.668 -4.66,7.949 0,3.485 1.36,6.356 4.1,8.613 2.73,2.254 6.59,3.383 11.58,3.383 5.81,0 10.09,-1.383 12.82,-4.152 2.74,-2.77 4.11,-6.273 4.11,-10.512 h 29.63 c 0,10.598 -4.22,19.211 -12.66,25.84 -8.45,6.629 -19.71,9.945 -33.79,9.945 -13.2,0 -23.88,-3.296 -32.05,-9.894 -8.16,-6.598 -12.25,-14.817 -12.25,-24.66 0,-16.883 13.19,-28.094 39.58,-33.633 7.93,-1.641 13.69,-3.504 17.27,-5.586 3.6,-2.086 5.4,-4.941 5.4,-8.563 0,-3.488 -1.47,-6.308 -4.37,-8.46 z m 154.88,-22.2 v 1.742 c -2.87,5.399 -4.34,13.364 -4.41,23.895 v 48.09 c 0,12.441 -4.01,22.098 -12.05,28.965 -8.03,6.871 -18.88,10.304 -32.55,10.304 -9.03,0 -17.16,-1.554 -24.41,-4.664 -7.24,-3.113 -12.85,-7.398 -16.81,-12.867 -3.97,-5.473 -5.95,-11.418 -5.95,-17.844 h 29.63 c 0,4.168 1.42,7.45 4.26,9.844 2.84,2.395 6.75,3.59 11.74,3.59 5.67,0 9.83,-1.539 12.46,-4.613 2.63,-3.078 3.94,-7.18 3.94,-12.305 v -6.359 h -13.63 c -16.48,-0.067 -29.07,-3.246 -37.79,-9.536 -8.71,-6.289 -13.07,-15.312 -13.07,-27.07 0,-9.57 3.57,-17.5 10.72,-23.789 7.14,-6.289 16.14,-9.433 27.01,-9.433 11.49,0 20.82,4 27.99,11.996 0.62,-3.965 1.61,-7.282 2.98,-9.946 z m -65.11,24.2 c -2.6,2.39 -3.9,5.433 -3.9,9.125 l 0.1,1.742 c 0.96,10.254 8.86,15.383 23.7,15.383 h 11.06 v -19.075 c -1.77,-3.281 -4.51,-5.894 -8.2,-7.843 -3.69,-1.946 -7.73,-2.922 -12.09,-2.922 -4.52,0 -8.07,1.195 -10.67,3.59 z m 91.99,86.746 V 623.113 h 29.63 v 78.239 c 4.17,7.109 10.42,10.664 18.76,10.664 6.36,0 10.91,-1.422 13.64,-4.258 2.74,-2.836 4.1,-7.399 4.1,-13.688 v -70.957 h 29.64 v 71.676 c -0.14,13.738 -3.08,24.059 -8.82,30.965 -5.75,6.906 -14.49,10.355 -26.25,10.355 -13.33,0 -23.96,-4.957 -31.89,-14.867 l -0.92,12.817 z m 211.68,-17.457 v 17.457 h -88.91 v -23.891 h 50.66 l -52.19,-69.008 v -18.047 h 92.07 v 23.891 h -54.24 z m 101.85,-90.258 c 7.59,3.519 13.61,8.422 18.06,14.715 l -14.57,16.3 c -6.42,-8.269 -15.34,-12.406 -26.76,-12.406 -7.39,0 -13.48,2.188 -18.3,6.563 -4.82,4.375 -7.71,10.187 -8.67,17.433 h 70.65 v 12.098 c 0,17.57 -4.35,31.137 -13.07,40.707 -8.71,9.57 -20.66,14.355 -35.84,14.355 -10.12,0 -19.12,-2.375 -27.02,-7.125 -7.89,-4.75 -13.99,-11.519 -18.3,-20.3 -4.3,-8.786 -6.46,-18.75 -6.46,-29.891 v -2.871 c 0,-16.613 5.11,-29.91 15.33,-39.891 10.22,-9.98 23.47,-14.968 39.73,-14.968 9.23,0 17.64,1.761 25.22,5.281 z m -14.04,80.469 c 3.42,-3.606 5.2,-8.704 5.33,-15.293 v -2.372 h -41.21 c 1.01,7.415 3.36,13.114 7.01,17.098 3.66,3.981 8.43,5.973 14.31,5.973 6.28,0 11.14,-1.801 14.56,-5.406 z m 91.22,27.246 h -29.74 V 623.113 h 29.74 z m -26.92,17.636 c 3.05,-2.871 7.06,-4.304 12.05,-4.304 4.99,0 9.01,1.433 12.05,4.304 3.04,2.871 4.56,6.563 4.56,11.075 0,4.445 -1.5,8.101 -4.51,10.972 -3.01,2.871 -7.04,4.309 -12.1,4.309 -5.13,0 -9.18,-1.438 -12.15,-4.309 -2.98,-2.871 -4.46,-6.527 -4.46,-10.972 0,-4.512 1.52,-8.204 4.56,-11.075 z m 54.85,-73.519 c 0,-17.227 4.11,-31.051 12.35,-41.477 8.24,-10.426 19.02,-15.636 32.35,-15.636 11.15,0 20.13,3.859 26.97,11.585 v -5.945 c 0,-7.726 -2.19,-13.691 -6.56,-17.894 -4.38,-4.204 -10.49,-6.305 -18.36,-6.305 -10.52,0 -19.48,4.137 -26.86,12.406 l -13.12,-18.047 c 3.96,-5.129 9.8,-9.312 17.53,-12.562 7.73,-3.246 15.65,-4.871 23.79,-4.871 10.73,0 20.1,1.883 28.1,5.64 7.99,3.762 14.2,9.231 18.6,16.407 4.41,7.179 6.62,15.621 6.62,25.328 v 107.254 h -26.87 l -1.23,-10.457 c -6.77,8.339 -16.24,12.507 -28.4,12.507 -13.74,0 -24.66,-5.195 -32.76,-15.582 -8.1,-10.394 -12.15,-24.097 -12.15,-41.121 z m 35.73,25.109 c 4.07,5.817 9.66,8.731 16.77,8.731 8.82,0 15.21,-3.391 19.17,-10.168 v -46.727 c -3.9,-6.777 -10.35,-10.168 -19.38,-10.168 -7.04,0 -12.58,2.86 -16.61,8.574 -4.03,5.719 -6.05,13.61 -6.05,23.672 0,11.571 2.03,20.266 6.1,26.086 z m 173.34,-76.941 c 7.59,3.519 13.61,8.422 18.05,14.715 l -14.56,16.3 c -6.43,-8.269 -15.35,-12.406 -26.77,-12.406 -7.38,0 -13.48,2.188 -18.3,6.563 -4.82,4.375 -7.7,10.187 -8.66,17.433 h 70.64 v 12.098 c 0,17.57 -4.35,31.137 -13.06,40.707 -8.72,9.57 -20.67,14.355 -35.84,14.355 -10.12,0 -19.13,-2.375 -27.03,-7.125 -7.89,-4.75 -13.99,-11.519 -18.3,-20.3 -4.3,-8.786 -6.46,-18.75 -6.46,-29.891 v -2.871 c 0,-16.613 5.11,-29.91 15.33,-39.891 10.22,-9.98 23.47,-14.968 39.73,-14.968 9.24,0 17.64,1.761 25.23,5.281 z m -14.05,80.469 c 3.42,-3.606 5.2,-8.704 5.34,-15.293 v -2.372 h -41.22 c 1.02,7.415 3.36,13.114 7.02,17.098 3.66,3.981 8.43,5.973 14.31,5.973 6.28,0 11.13,-1.801 14.55,-5.406 z m 123.98,27.964 c -2.87,0.887 -5.94,1.332 -9.23,1.332 -10.53,0 -18.76,-5.089 -24.71,-15.277 l -0.82,13.227 h -27.99 V 623.113 h 29.63 v 72.598 c 3.49,7.59 10.84,11.383 22.04,11.383 3.08,0 6.64,-0.274 10.67,-0.821 l 0.41,28.504" style="fill:#ffffff;fill-opacity:1;fill-rule:nonzero;stroke:none" id="path28"/>
          <path d="m 339.699,554.52 c 4.746,3.863 12.438,11.511 15.387,14.46 8.746,8.747 20.039,23.43 20.91,30.946 1.012,8.199 -2.625,26.387 -12.715,22.703 -8.246,-2.988 -12.117,-16.945 -18.187,-27.27 -11.699,-19.972 -23.219,-37.3 -34.547,-56.367 -7.504,-12.621 -14.965,-35.097 -30.906,-37.258 -7.09,-0.961 -12.059,1.52 -12.711,3.637 -1.516,4.695 10.133,10.879 11.797,12.715 6.355,7.144 10.406,17.68 15.476,26.387 14.879,25.429 31.18,49.648 44.531,78.156 -7.687,-3.227 -10.91,-13.543 -16.347,-21.832 -10.133,-15.383 -19.75,-32.461 -29.985,-49.969 -6.539,-11.148 -12.707,-27.262 -25.472,-28.18 -4.782,-0.375 -11.559,2.711 -11.825,5.43 -0.515,5.02 9.114,7.184 10.907,9.125 5.156,5.574 8.703,16.11 13.629,24.551 11.246,19.008 22.761,39.457 35.472,59.949 2.25,3.692 2.344,2.445 3.633,5.492 4.055,9.43 -3.633,4.782 -8.199,-2.722 -11.609,-19.391 -22.66,-38.555 -33.613,-57.297 -4.289,-7.321 -8.25,-18.414 -13.641,-21.824 -5.016,-3.188 -17.953,-3.961 -19.109,1.843 -0.786,4.235 9.347,9.489 11.839,12.711 9.809,12.707 16.579,28.461 24.54,41.809 8.664,14.609 17.23,28.332 22.707,43.668 -9.895,-7.778 -15.754,-22.297 -23.629,-35.465 -7.36,-12.348 -13.582,-27.211 -21.825,-37.305 -3.867,-4.738 -11.421,-9.433 -17.273,-9.074 -2.152,0.145 -8.883,3.586 -9.066,4.563 -0.598,3.043 8.793,7.461 10.91,9.992 11.797,14.047 23.672,42.508 35.465,62.722 2.437,4.2 12.203,17.782 9.996,19.993 -2.723,2.714 -8.524,-8.11 -7.559,-6.817 -9.027,-14.422 -19.152,-34.351 -27.91,-48.633 -3.129,-5.113 -7.781,-15.332 -11.836,-18.191 -5.98,-4.242 -20.816,-2.996 -20.91,2.719 -0.039,3.351 7.562,4.832 9.121,6.402 8.012,7.875 15.34,26.566 24.543,42.684 4.199,7.414 18.387,27.129 21.793,36.394 0.598,1.567 1.605,5.43 0,6.348 -2.953,1.711 -6.5,-7.774 -7.238,-9.07 -9.989,-16.899 -19.063,-33.485 -29.098,-50.016 -6.863,-11.332 -16.629,-23.906 -32.754,-11.84 0,0.649 0,1.242 0,1.852 16.859,9.433 24.363,30.39 35.465,49.086 4.605,7.742 10.133,17.14 15.476,26.351 5.161,8.879 13.352,18.832 15.43,26.395 0.875,2.98 -0.371,7.172 0,9.984 2.902,20.863 15.93,34.035 32.742,42.691 1.332,2.719 -6.539,9.125 -2.711,11.84 0.914,0.637 8.93,-3.367 11.789,-3.633 6.629,-0.703 13.032,2.161 21.829,0.918 9.765,-1.437 24.226,-9.671 23.625,-13.644 -0.231,-1.695 -10.04,-6.809 -11.79,-8.191 -4.328,-3.266 -8.339,-6.684 -11.835,-7.274 -3.317,-0.559 -14,2.941 -15.481,2.723 -6.851,-1.063 -16.941,-15.071 -14.504,-33.629 2.438,-18.653 21.649,-36.238 42.695,-40.891 4.188,-0.914 11.649,-2.043 13.633,-0.914 2.485,1.363 1.614,8.277 3.633,11.82 1.477,2.582 6.133,3.36 9.129,7.278 5.012,6.594 7.363,18.008 11.781,24.558 1.149,1.645 12.071,8.973 9.996,14.504 -0.879,2.528 -11.367,4.414 -14.504,6.399 -5.441,3.41 -8.476,6.855 -10.046,11.793 5.527,-2.078 12.027,-3.141 20.039,-2.719 0.64,3.086 -13.578,5.867 -17.871,8.441 -4.286,2.59 -11.274,6.254 -8.844,7.461 1.172,0.59 5.316,-1.812 10.933,-2.941 4.883,-0.984 13.067,-2.973 13.067,-2.973 2.758,0.141 5.105,-2.164 7.226,0 -0.968,4.793 -10.5,12.625 -15.429,11.828 -4.7,-0.773 -2.442,-5.05 -7.274,-6.343 -0.558,7.914 -3.965,14.5 -0.926,19.984 4.383,7.824 16.536,-0.414 19.118,9.07 0.879,0 1.797,0 2.714,0 11.747,-5.793 34.633,-7.91 46.375,-0.918 1.34,-8.105 -8.289,-8.48 -9.109,-12.707 -0.367,-2.031 4.926,-10.035 5.469,-15.429 1.754,-17.692 -9.305,-39.836 -10.91,-60.938 -1.059,-13.441 2.808,-7.875 8.148,-18.183 2.676,-5.067 0.563,-10.875 3.645,-12.711 2.394,-1.43 16.945,1.652 20.906,2.726 17.773,4.867 34.726,21.317 37.305,40.02 1.472,10.812 -2.348,26.976 -8.196,29.05 -4.429,1.567 -9.851,-2.488 -15.48,-1.796 -5.887,0.695 -26.113,17.226 -25.426,20.902 0.145,0.879 15.941,10.648 17.285,10.918 13.399,2.637 27.992,-6.992 38.176,0 0.828,-4.234 -5.484,-4.875 -4.566,-9.109 0.414,-1.891 9.722,-5.676 13.636,-9.086 8.797,-7.598 18.145,-24.129 18.192,-40.02 0.047,-12.656 5.304,-18.973 12.711,-31.773 9.808,-16.989 18.011,-30.86 28.183,-48.219 7.278,-12.348 10.961,-24.551 24.551,-28.145 -9.121,-12.797 -26.711,-3.402 -33.625,5.446 -14.133,18.054 -25.055,51.347 -39.098,63.648 4.145,-13.598 12.391,-27.09 20.907,-40.949 7.925,-12.852 14.695,-27.582 23.629,-39.981 1.843,-2.574 11.929,-9.207 11.835,-10.906 -0.367,-6.308 -15.015,-4.234 -18.191,-2.726 -11.695,5.574 -20.543,26.445 -29.113,41.824 -3.821,6.859 -10.356,21.785 -16.344,29.062 -9.582,11.703 -0.508,-7.23 0,-8.156 4.055,-7.41 11.602,-21.504 16.344,-30.031 9.765,-17.309 17.094,-34.531 29.113,-44.524 1.199,-1.015 6.445,-3.734 6.356,-5.441 -0.329,-6.266 -16.028,-5.02 -20.907,-2.707 -9.676,4.453 -13.406,17.035 -19.07,27.25 -8.75,15.703 -21.188,36.625 -30.902,50.891 3.367,-14.5 13.722,-29.739 22.711,-45.446 9.296,-16.215 15.007,-33.91 26.382,-43.621 2.071,-1.789 10.082,-3.863 9.996,-7.273 -0.324,-9.348 -21.234,-3.59 -24.55,-0.922 -9.211,7.32 -17.5,30.769 -24.539,42.742 -8.852,14.965 -15.25,31.727 -24.551,42.734 7.23,-22.058 23.621,-49.136 36.336,-72.765 4.277,-7.875 8.156,-18.051 13.625,-22.703 1.527,-1.297 9.351,-2.727 10.047,-5.446 3.132,-12.75 -21.743,-5.156 -25.477,-1.836 -10.867,9.684 -19.332,34.496 -27.254,49.098 -9.531,17.449 -19.297,33.898 -29.109,47.246 9.578,-26.66 28.457,-53.047 42.742,-80.871 4.512,-8.84 8.609,-20.543 14.547,-27.305 0.976,-1.101 12.25,-5.574 12.715,-8.156 1.328,-7.32 -12.16,-8.008 -18.192,-5.473 -13.265,5.657 -18.558,23.989 -27.269,39.094 -11.559,20.086 -20.864,36.071 -33.617,59.098 -3.914,7.031 -11.559,27.715 -21.825,23.613 -2.355,-0.91 -7.832,-14.922 -7.277,-21.777 0.637,-7.696 8.191,-14.875 11.832,-20.031 4.516,-6.403 9.023,-13.27 13.625,-18.141 6.223,-6.645 15.941,-10.285 18.195,-18.199 -4.925,-1.852 -9.07,0 -14.55,0 3.871,-10.282 8.843,-18.52 14.55,-27.266 3.969,-6.125 12.157,-23.074 17.278,-24.551 8.425,-2.433 17.82,5.117 26.34,2.723 12.488,-3.5 7.269,-21.133 -1.797,-28.191 -1.106,2.253 -1.336,5.347 -1.844,8.199 -7.691,-1.012 -9.258,4.058 -14.551,5.437 0.367,-7.41 11.973,-9.996 12.754,-18.191 0.742,-8.242 -8.328,-12.621 -10.91,-20.902 -3.961,2.343 0.363,5.699 -0.926,9.113 -0.918,2.39 -4.699,2.211 -6.348,4.508 -3.55,4.98 -0.23,11.664 -5.48,14.558 4.785,-17.086 -6.828,-29.105 -19.07,-30.906 -2.168,3.965 2.851,5.715 2.711,9.992 -0.09,2.668 -2.946,4.152 -2.711,7.281 0.593,8.563 13.953,22.426 8.195,28.176 -3.457,3.465 -31.039,4.195 -28.188,-7.265 -0.781,2.808 -11.742,13.957 -11.828,17.273 -0.089,4.457 6.903,10.539 10.907,10.914 7.742,0.684 13.816,-8.754 19.992,-9.078 -0.602,6.172 -4.469,10.316 -9.074,16.348 -2.301,2.992 -10.039,13.816 -13.637,13.632 -5.934,-0.324 -4.371,-10.175 -9.11,-9.07 -3.511,0.785 -4.011,35.508 -11.8,31.82 -3.625,-1.746 -1.192,-20.171 -0.914,-26.382 1.66,-35.231 -0.368,-77.508 36.332,-76.368 -5.203,-8.839 -9.899,-13.496 -19.977,-13.621 -7.375,-0.14 -15.394,8.606 -20.914,8.188 -6.035,-0.5 -6.82,-8.238 -11.789,-10.043 -0.602,0 -1.246,0 -1.848,0 -4.047,1.019 -8.195,10.461 -11.789,10.93 -6.82,0.957 -12.39,-10.782 -25.468,-8.161 -6.485,1.289 -14.18,9.399 -12.708,12.707 0.918,2.129 12.247,3.547 15.426,5.434 23.719,14.418 18.887,61.488 19.989,100.035 -10.504,-4.648 -9.805,-20.496 -11.79,-33.66 -8.105,-0.828 -4.925,9.762 -9.117,10.91 -7.277,2.078 -20.59,-24.223 -23.629,-28.18 6.633,-1.113 12.344,7.782 19.106,7.278 3.695,-0.285 12.484,-7.606 12.723,-9.996 0.277,-2.68 -5.301,-7.094 -7.282,-10.004 -2.718,-3.996 -3.363,-8.649 -7.277,-9.985 -0.688,7.875 -2.301,9.86 -12.715,10.907 -29.238,2.957 -8.285,-13.813 -7.269,-29.106 0.23,-3.406 -2.532,-4.23 -2.719,-6.347 -0.453,-5.071 5.476,-5.34 2.719,-9.993 -10.368,6.024 -24.688,8.598 -19.114,28.184 -4.414,-3.137 -2.672,-8.887 -6.359,-12.762 -4.418,-4.601 -7.453,-4.011 -6.356,-13.64 -3.132,6.597 -12.25,13.039 -11.789,20.043 0.414,7.05 9.719,8.285 11.789,15.429 -4.097,2.813 -7.046,-5.984 -12.707,-1.797 -2.031,-1.336 -0.742,-5.941 -2.718,-7.273 -4.192,4.547 -12.071,15.426 -6.407,22.707 5.942,7.59 24.371,-0.238 34.547,2.707 9.532,2.77 23.352,32.746 28.188,41.82 7.742,14.606 -7.832,1.149 -12.715,10.039 -1.473,2.586 7.32,6.539 7.32,6.411" style="fill:#ffffff;fill-opacity:1;fill-rule:nonzero;stroke:none" id="path30"/>
        </g>
      </g>
    </g>
  </g>
</svg>